<svg class="main-svg" xmlns="http://www.w3.org/2000/svg" xmlns:xlink="http://www.w3.org/1999/xlink" width="700" height="500" style="" viewBox="0 0 700 500"><rect x="0" y="0" width="700" height="500" style="fill: rgb(255, 255, 255); fill-opacity: 1;"/><defs id="defs-193776"><g class="clips"><clipPath id="clip193776xyplot" class="plotclip"><rect width="520" height="320"/></clipPath><clipPath class="axesclip" id="clip193776x"><rect x="80" y="0" width="520" height="500"/></clipPath><clipPath class="axesclip" id="clip193776y"><rect x="0" y="100" width="700" height="320"/></clipPath><clipPath class="axesclip" id="clip193776xy"><rect x="80" y="100" width="520" height="320"/></clipPath></g><g class="gradients"/><g class="patterns"/></defs><g class="bglayer"><rect class="bg" x="80" y="100" width="520" height="320" style="fill: rgb(229, 236, 246); fill-opacity: 1; stroke-width: 0;"/></g><g class="layer-below"><g class="imagelayer"/><g class="shapelayer"/></g><g class="cartesianlayer"><g class="subplot xy"><g class="layer-subplot"><g class="shapelayer"/><g class="imagelayer"/></g><g class="minor-gridlayer"><g class="x"/><g class="y"/></g><g class="gridlayer"><g class="x"><path class="xgrid crisp" transform="translate(143.38,0)" d="M0,100v320" style="stroke: rgb(255, 255, 255); stroke-opacity: 1; stroke-width: 1px;"/><path class="xgrid crisp" transform="translate(237.81,0)" d="M0,100v320" style="stroke: rgb(255, 255, 255); stroke-opacity: 1; stroke-width: 1px;"/><path class="xgrid crisp" transform="translate(332.24,0)" d="M0,100v320" style="stroke: rgb(255, 255, 255); stroke-opacity: 1; stroke-width: 1px;"/><path class="xgrid crisp" transform="translate(426.93,0)" d="M0,100v320" style="stroke: rgb(255, 255, 255); stroke-opacity: 1; stroke-width: 1px;"/><path class="xgrid crisp" transform="translate(521.35,0)" d="M0,100v320" style="stroke: rgb(255, 255, 255); stroke-opacity: 1; stroke-width: 1px;"/></g><g class="y"><path class="ygrid crisp" transform="translate(0,328.99)" d="M80,0h520" style="stroke: rgb(255, 255, 255); stroke-opacity: 1; stroke-width: 1px;"/><path class="ygrid crisp" transform="translate(0,253.84)" d="M80,0h520" style="stroke: rgb(255, 255, 255); stroke-opacity: 1; stroke-width: 1px;"/><path class="ygrid crisp" transform="translate(0,178.68)" d="M80,0h520" style="stroke: rgb(255, 255, 255); stroke-opacity: 1; stroke-width: 1px;"/><path class="ygrid crisp" transform="translate(0,103.52)" d="M80,0h520" style="stroke: rgb(255, 255, 255); stroke-opacity: 1; stroke-width: 1px;"/></g></g><g class="zerolinelayer"><path class="yzl zl crisp" transform="translate(0,404.15)" d="M80,0h520" style="stroke: rgb(255, 255, 255); stroke-opacity: 1; stroke-width: 2px;"/></g><path class="xlines-below"/><path class="ylines-below"/><g class="overlines-below"/><g class="xaxislayer-below"/><g class="yaxislayer-below"/><g class="overaxes-below"/><g class="plot" transform="translate(80,100)" clip-path="url(#clip193776xyplot)"><g class="scatterlayer mlayer"><g class="trace scatter trace23a7d6" style="stroke-miterlimit: 2; opacity: 1;"><g class="fills"/><g class="errorbars"/><g class="lines"><path class="js-line" d="M520,281L511.98,260.26L504.22,259.81L496.2,251.99L488.18,254.25L480.42,254.1L472.4,263.27L464.64,292.73L456.62,290.77L449.37,259.81L441.35,246.73L433.33,259.81L425.57,279.35L417.55,240.87L409.79,234.25L401.77,222.53L393.75,221.48L385.99,224.18L377.97,223.73L370.21,290.77L362.19,290.77L354.95,290.77L346.93,303.25L331.14,302.65L323.12,273.64L315.36,262.36L307.34,268.53L299.32,263.72L291.56,253.8L283.54,256.8L275.78,302.65L267.76,304L260.26,304L252.24,302.8L244.22,303.7L236.46,302.65L228.44,292.88L220.68,283.86L212.66,283.71L204.64,283.26L196.88,277.09L188.86,287.01L181.09,300.24L173.07,287.77L165.83,291.52L157.81,302.2L149.79,302.65L142.03,302.65L134.01,266.27L126.25,261.01L118.23,245.83L110.21,240.72L102.45,239.06L94.43,263.57L86.67,300.39L78.65,301.9L71.4,301.14L63.38,297.54L55.36,300.39L47.6,300.39L39.58,276.49L31.82,271.38L23.8,271.38L15.78,270.18L8.02,245.68L0,278.3" style="vector-effect: non-scaling-stroke; fill: none; stroke: rgb(99, 110, 250); stroke-opacity: 1; stroke-width: 2px; opacity: 1;"/></g><g class="points"/><g class="text"/></g><g class="trace scatter traceb222d8" style="stroke-miterlimit: 2; opacity: 1;"><g class="fills"/><g class="errorbars"/><g class="lines"><path class="js-line" d="M520,281L511.98,256.35L504.22,257.25L496.2,247.93L488.18,254.25L480.42,254.1L472.4,252.14L464.64,292.73L456.62,290.77L449.37,259.81L441.35,246.73L433.33,259.81L425.57,279.35L417.55,240.87L409.79,234.25L401.77,222.53L393.75,221.48L385.99,224.18L377.97,223.73L370.21,290.77L362.19,290.77L354.95,290.77L346.93,303.25L331.14,302.65L323.12,273.64L315.36,262.36L307.34,268.53L299.32,263.72L291.56,253.8L283.54,256.8L275.78,302.65L267.76,304L260.26,304L252.24,302.8L244.22,303.7L236.46,302.65L228.44,236.36L220.68,232.15L212.66,232.3L204.64,231.55L196.88,225.84L188.86,222.53L181.09,282.35L173.07,281L165.83,281.45L149.79,281.3L142.03,280.25L134.01,171.27L126.25,164.06L118.23,160.15L110.21,151.43L102.45,150.23L94.43,125.88L86.67,233.35L78.65,257.25L71.4,254.1L63.38,256.2L55.36,253.34L47.6,251.99L39.58,161.8L31.82,155.34L23.8,158.5L15.78,157.59L0,149.63" style="vector-effect: non-scaling-stroke; fill: none; stroke: rgb(239, 85, 59); stroke-opacity: 1; stroke-width: 2px; opacity: 1;"/></g><g class="points"/><g class="text"/></g><g class="trace scatter trace3b8ae8" style="stroke-miterlimit: 2; opacity: 1;"><g class="fills"/><g class="errorbars"/><g class="lines"><path class="js-line" d="M520,281L511.98,255L504.22,255.9L496.2,237.86L488.18,250.79L480.42,251.39L472.4,248.53L464.64,292.73L456.62,290.77L449.37,259.81L441.35,246.73L433.33,259.81L425.57,279.35L417.55,227.94L409.79,227.79L401.77,222.53L393.75,221.48L385.99,224.18L377.97,223.73L370.21,177.29L362.19,173.23L354.95,172.48L346.93,175.48L331.14,175.78L323.12,31.33L315.36,24.27L307.34,22.76L299.32,18.1L291.56,16.3L283.54,16L275.78,251.69L267.76,248.23L260.26,248.38L252.24,248.38L244.22,244.18L236.46,243.87L228.44,107.39L220.68,103.63L212.66,102.88L204.64,101.83L196.88,96.87L188.86,94.91L181.09,282.35L173.07,281L165.83,281.45L149.79,281.3L142.03,280.25L134.01,171.27L126.25,164.06L118.23,160.15L110.21,151.43L102.45,150.23L94.43,125.88L86.67,233.35L78.65,257.25L71.4,254.1L63.38,256.2L55.36,253.34L47.6,251.99L39.58,160.6L31.82,150.98L23.8,156.09L15.78,155.94L8.02,150.23L0,145.27" style="vector-effect: non-scaling-stroke; fill: none; stroke: rgb(0, 204, 150); stroke-opacity: 1; stroke-width: 2px; opacity: 1;"/></g><g class="points"/><g class="text"/></g><g class="trace scatter trace9a2f9c" style="stroke-miterlimit: 2; opacity: 1;"><g class="fills"/><g class="errorbars"/><g class="lines"><path class="js-line" d="M520,281L511.98,206.75L504.22,207.5L496.2,203.29L488.18,203.29L480.42,202.84L472.4,215.01L464.64,276.94L456.62,277.09L449.37,259.81L441.35,246.73L433.33,259.81L425.57,279.35L417.55,164.66L409.79,164.36L401.77,145.42L393.75,164.51L385.99,163.76L377.97,160.9L370.21,290.77L362.19,290.77L354.95,290.77L346.93,303.25L331.14,302.65L323.12,225.84L307.34,226.44L299.32,224.18L291.56,209.75L283.54,209.45L275.78,302.65L267.76,304L260.26,304L252.24,302.8L244.22,303.7L236.46,302.65L228.44,221.18L220.68,221.03L212.66,221.33L204.64,214.86L188.86,214.26L181.09,297.99L173.07,287.77L165.83,291.52L157.81,297.69L149.79,274.84L142.03,294.08L134.01,205.39L118.23,203.74L110.21,203.74L102.45,201.94L94.43,201.79L86.67,293.63L78.65,293.63L63.38,293.63L55.36,293.93L47.6,290.62L39.58,204.94L31.82,205.09L23.8,203.89L0,203.29" style="vector-effect: non-scaling-stroke; fill: none; stroke: rgb(171, 99, 250); stroke-opacity: 1; stroke-width: 2px; opacity: 1;"/></g><g class="points"/><g class="text"/></g></g></g><g class="overplot"/><path class="xlines-above crisp" d="M0,0" style="fill: none;"/><path class="ylines-above crisp" d="M0,0" style="fill: none;"/><g class="overlines-above"/><g class="xaxislayer-above"><g class="xtick"><text text-anchor="middle" x="0" y="433" transform="translate(143.38,0)" style="font-family: 'Open Sans', verdana, arial, sans-serif; font-size: 12px; fill: rgb(42, 63, 95); fill-opacity: 1; white-space: pre; opacity: 1;">2018</text></g><g class="xtick"><text text-anchor="middle" x="0" y="433" style="font-family: 'Open Sans', verdana, arial, sans-serif; font-size: 12px; fill: rgb(42, 63, 95); fill-opacity: 1; white-space: pre; opacity: 1;" transform="translate(237.81,0)">2019</text></g><g class="xtick"><text text-anchor="middle" x="0" y="433" style="font-family: 'Open Sans', verdana, arial, sans-serif; font-size: 12px; fill: rgb(42, 63, 95); fill-opacity: 1; white-space: pre; opacity: 1;" transform="translate(332.24,0)">2020</text></g><g class="xtick"><text text-anchor="middle" x="0" y="433" style="font-family: 'Open Sans', verdana, arial, sans-serif; font-size: 12px; fill: rgb(42, 63, 95); fill-opacity: 1; white-space: pre; opacity: 1;" transform="translate(426.93,0)">2021</text></g><g class="xtick"><text text-anchor="middle" x="0" y="433" style="font-family: 'Open Sans', verdana, arial, sans-serif; font-size: 12px; fill: rgb(42, 63, 95); fill-opacity: 1; white-space: pre; opacity: 1;" transform="translate(521.35,0)">2022</text></g></g><g class="yaxislayer-above"><g class="ytick"><text text-anchor="end" x="79" y="4.199999999999999" transform="translate(0,404.15)" style="font-family: 'Open Sans', verdana, arial, sans-serif; font-size: 12px; fill: rgb(42, 63, 95); fill-opacity: 1; white-space: pre; opacity: 1;">0</text></g><g class="ytick"><text text-anchor="end" x="79" y="4.199999999999999" style="font-family: 'Open Sans', verdana, arial, sans-serif; font-size: 12px; fill: rgb(42, 63, 95); fill-opacity: 1; white-space: pre; opacity: 1;" transform="translate(0,328.99)">5</text></g><g class="ytick"><text text-anchor="end" x="79" y="4.199999999999999" style="font-family: 'Open Sans', verdana, arial, sans-serif; font-size: 12px; fill: rgb(42, 63, 95); fill-opacity: 1; white-space: pre; opacity: 1;" transform="translate(0,253.84)">10</text></g><g class="ytick"><text text-anchor="end" x="79" y="4.199999999999999" style="font-family: 'Open Sans', verdana, arial, sans-serif; font-size: 12px; fill: rgb(42, 63, 95); fill-opacity: 1; white-space: pre; opacity: 1;" transform="translate(0,178.68)">15</text></g><g class="ytick"><text text-anchor="end" x="79" y="4.199999999999999" style="font-family: 'Open Sans', verdana, arial, sans-serif; font-size: 12px; fill: rgb(42, 63, 95); fill-opacity: 1; white-space: pre; opacity: 1;" transform="translate(0,103.52)">20</text></g></g><g class="overaxes-above"/></g></g><g class="polarlayer"/><g class="smithlayer"/><g class="ternarylayer"/><g class="geolayer"/><g class="funnelarealayer"/><g class="pielayer"/><g class="iciclelayer"/><g class="treemaplayer"/><g class="sunburstlayer"/><g class="glimages"/><defs id="topdefs-193776"><g class="clips"/><clipPath id="legend193776"><rect width="78" height="105" x="0" y="0"/></clipPath></defs><g class="layer-above"><g class="imagelayer"/><g class="shapelayer"/></g><g class="infolayer"><g class="legend" pointer-events="all" transform="translate(610.4,100)"><rect class="bg" shape-rendering="crispEdges" style="stroke: rgb(68, 68, 68); stroke-opacity: 1; fill: rgb(255, 255, 255); fill-opacity: 1; stroke-width: 0px;" width="78" height="105" x="0" y="0"/><g class="scrollbox" transform="" clip-path="url(#legend193776)"><text class="legendtitletext" text-anchor="start" x="2" y="18.2" style="font-family: 'Open Sans', verdana, arial, sans-serif; font-size: 14px; fill: rgb(42, 63, 95); fill-opacity: 1; white-space: pre;">variable</text><g class="groups" transform=""><g class="traces" transform="translate(0,32.7)" style="opacity: 1;"><text class="legendtext" text-anchor="start" x="40" y="4.680000000000001" style="font-family: 'Open Sans', verdana, arial, sans-serif; font-size: 12px; fill: rgb(42, 63, 95); fill-opacity: 1; white-space: pre;">NYCA</text><g class="layers" style="opacity: 1;"><g class="legendfill"/><g class="legendlines"><path class="js-line" d="M5,0h30" style="fill: none; stroke: rgb(99, 110, 250); stroke-opacity: 1; stroke-width: 2px;"/></g><g class="legendsymbols"><g class="legendpoints"/></g></g><rect class="legendtoggle" x="0" y="-9.5" width="72.953125" height="19" style="fill: rgb(0, 0, 0); fill-opacity: 0;"/></g></g><g class="groups" transform=""><g class="traces" transform="translate(0,51.7)" style="opacity: 1;"><text class="legendtext" text-anchor="start" x="40" y="4.680000000000001" style="font-family: 'Open Sans', verdana, arial, sans-serif; font-size: 12px; fill: rgb(42, 63, 95); fill-opacity: 1; white-space: pre;">GHIJ</text><g class="layers" style="opacity: 1;"><g class="legendfill"/><g class="legendlines"><path class="js-line" d="M5,0h30" style="fill: none; stroke: rgb(239, 85, 59); stroke-opacity: 1; stroke-width: 2px;"/></g><g class="legendsymbols"><g class="legendpoints"/></g></g><rect class="legendtoggle" x="0" y="-9.5" width="72.953125" height="19" style="fill: rgb(0, 0, 0); fill-opacity: 0;"/></g></g><g class="groups" transform=""><g class="traces" transform="translate(0,70.7)" style="opacity: 1;"><text class="legendtext" text-anchor="start" x="40" y="4.680000000000001" style="font-family: 'Open Sans', verdana, arial, sans-serif; font-size: 12px; fill: rgb(42, 63, 95); fill-opacity: 1; white-space: pre;">NYC</text><g class="layers" style="opacity: 1;"><g class="legendfill"/><g class="legendlines"><path class="js-line" d="M5,0h30" style="fill: none; stroke: rgb(0, 204, 150); stroke-opacity: 1; stroke-width: 2px;"/></g><g class="legendsymbols"><g class="legendpoints"/></g></g><rect class="legendtoggle" x="0" y="-9.5" width="72.953125" height="19" style="fill: rgb(0, 0, 0); fill-opacity: 0;"/></g></g><g class="groups" transform=""><g class="traces" transform="translate(0,89.7)" style="opacity: 1;"><text class="legendtext" text-anchor="start" x="40" y="4.680000000000001" style="font-family: 'Open Sans', verdana, arial, sans-serif; font-size: 12px; fill: rgb(42, 63, 95); fill-opacity: 1; white-space: pre;">LI</text><g class="layers" style="opacity: 1;"><g class="legendfill"/><g class="legendlines"><path class="js-line" d="M5,0h30" style="fill: none; stroke: rgb(171, 99, 250); stroke-opacity: 1; stroke-width: 2px;"/></g><g class="legendsymbols"><g class="legendpoints"/></g></g><rect class="legendtoggle" x="0" y="-9.5" width="72.953125" height="19" style="fill: rgb(0, 0, 0); fill-opacity: 0;"/></g></g></g><rect class="scrollbar" rx="20" ry="3" width="0" height="0" style="fill: rgb(128, 139, 164); fill-opacity: 1;" x="0" y="0"/></g><g class="g-gtitle"><text class="gtitle" x="35" y="50" text-anchor="start" dy="0em" style="font-family: 'Open Sans', verdana, arial, sans-serif; font-size: 17px; fill: rgb(42, 63, 95); opacity: 1; font-weight: normal; white-space: pre;">NYISO Capaciy Prices (Spot Auction)</text></g><g class="g-xtitle"><text class="xtitle" x="340" y="460.3" text-anchor="middle" style="font-family: 'Open Sans', verdana, arial, sans-serif; font-size: 14px; fill: rgb(42, 63, 95); opacity: 1; font-weight: normal; white-space: pre;">Date</text></g><g class="g-ytitle"><text class="ytitle" transform="rotate(-90,38.934375,260)" x="38.934375" y="260" text-anchor="middle" style="font-family: 'Open Sans', verdana, arial, sans-serif; font-size: 14px; fill: rgb(42, 63, 95); opacity: 1; font-weight: normal; white-space: pre;">Megawatts (MW)</text></g></g></svg>